<svg xmlns="http://www.w3.org/2000/svg" width="16" height="16" viewBox="0 0 16 16">
  <rect x="5" y="2" width="1" height="1" style="fill:#196012;fill-opacity:1" />
  <rect x="6" y="2" width="1" height="1" style="fill:#196012;fill-opacity:1" />
  <rect x="7" y="2" width="1" height="1" style="fill:#195b12;fill-opacity:1" />
  <rect x="8" y="2" width="1" height="1" style="fill:#175412;fill-opacity:1" />
  <rect x="9" y="2" width="1" height="1" style="fill:#185712;fill-opacity:1" />
  <rect x="10" y="2" width="1" height="1" style="fill:#185712;fill-opacity:0.9921568627450981" />
  <rect x="7" y="3" width="1" height="1" style="fill:#185712;fill-opacity:1" />
  <rect x="8" y="3" width="1" height="1" style="fill:#164912;fill-opacity:1" />
  <rect x="9" y="3" width="1" height="1" style="fill:#195b12;fill-opacity:1" />
  <rect x="10" y="3" width="1" height="1" style="fill:#164a12;fill-opacity:1" />
  <rect x="11" y="3" width="1" height="1" style="fill:#195712;fill-opacity:1" />
  <rect x="13" y="3" width="1" height="1" style="fill:#462a09;fill-opacity:1" />
  <rect x="14" y="3" width="1" height="1" style="fill:#4c2d09;fill-opacity:1" />
  <rect x="10" y="4" width="1" height="1" style="fill:#195a12;fill-opacity:1" />
  <rect x="11" y="4" width="1" height="1" style="fill:#3a2509;fill-opacity:1" />
  <rect x="12" y="4" width="1" height="1" style="fill:#3e2509;fill-opacity:1" />
  <rect x="13" y="4" width="1" height="1" style="fill:#3e2509;fill-opacity:1" />
  <rect x="14" y="4" width="1" height="1" style="fill:#482c09;fill-opacity:1" />
  <rect x="3" y="5" width="1" height="1" style="fill:#3f0814;fill-opacity:1" />
  <rect x="4" y="5" width="1" height="1" style="fill:#400814;fill-opacity:1" />
  <rect x="5" y="5" width="1" height="1" style="fill:#3f0814;fill-opacity:1" />
  <rect x="6" y="5" width="1" height="1" style="fill:#420815;fill-opacity:1" />
  <rect x="7" y="5" width="1" height="1" style="fill:#440815;fill-opacity:1" />
  <rect x="9" y="5" width="1" height="1" style="fill:#402709;fill-opacity:1" />
  <rect x="10" y="5" width="1" height="1" style="fill:#402709;fill-opacity:1" />
  <rect x="11" y="5" width="1" height="1" style="fill:#1b0d00;fill-opacity:0.07450980392156863" />
  <rect x="12" y="5" width="1" height="1" style="fill:#3b2409;fill-opacity:1" />
  <rect x="2" y="6" width="1" height="1" style="fill:#3e0813;fill-opacity:1" />
  <rect x="3" y="6" width="1" height="1" style="fill:#420815;fill-opacity:1" />
  <rect x="4" y="6" width="1" height="1" style="fill:#b9082d;fill-opacity:0.9921568627450981" />
  <rect x="5" y="6" width="1" height="1" style="fill:#b70b2b;fill-opacity:0.9764705882352941" />
  <rect x="6" y="6" width="1" height="1" style="fill:#b0092b;fill-opacity:0.9921568627450981" />
  <rect x="7" y="6" width="1" height="1" style="fill:#a31827;fill-opacity:0.9450980392156862" />
  <rect x="8" y="6" width="1" height="1" style="fill:#3d2509;fill-opacity:1" />
  <rect x="9" y="6" width="1" height="1" style="fill:#450815;fill-opacity:1" />
  <rect x="11" y="6" width="1" height="1" style="fill:#200000;fill-opacity:0.03137254901960784" />
  <rect x="12" y="6" width="1" height="1" style="fill:#3f2709;fill-opacity:1" />
  <rect x="2" y="7" width="1" height="1" style="fill:#400814;fill-opacity:1" />
  <rect x="3" y="7" width="1" height="1" style="fill:#c1092d;fill-opacity:0.9921568627450981" />
  <rect x="4" y="7" width="1" height="1" style="fill:#c8082d;fill-opacity:1" />
  <rect x="5" y="7" width="1" height="1" style="fill:#b8072c;fill-opacity:0.9450980392156862" />
  <rect x="6" y="7" width="1" height="1" style="fill:#b0082a;fill-opacity:0.984313725490196" />
  <rect x="7" y="7" width="1" height="1" style="fill:#382209;fill-opacity:1" />
  <rect x="8" y="7" width="1" height="1" style="fill:#9c0826;fill-opacity:1" />
  <rect x="9" y="7" width="1" height="1" style="fill:#420814;fill-opacity:1" />
  <rect x="11" y="7" width="1" height="1" style="fill:#3e2609;fill-opacity:1" />
  <rect x="12" y="7" width="1" height="1" style="fill:#440e13;fill-opacity:0.984313725490196" />
  <rect x="13" y="7" width="1" height="1" style="fill:#430816;fill-opacity:0.9764705882352941" />
  <rect x="2" y="8" width="1" height="1" style="fill:#450815;fill-opacity:1" />
  <rect x="3" y="8" width="1" height="1" style="fill:#d50730;fill-opacity:1" />
  <rect x="4" y="8" width="1" height="1" style="fill:#dc0733;fill-opacity:0.9529411764705882" />
  <rect x="5" y="8" width="1" height="1" style="fill:#b60b28;fill-opacity:0.8352941176470589" />
  <rect x="6" y="8" width="1" height="1" style="fill:#3e2509;fill-opacity:1" />
  <rect x="7" y="8" width="1" height="1" style="fill:#b4092c;fill-opacity:1" />
  <rect x="8" y="8" width="1" height="1" style="fill:#400814;fill-opacity:1" />
  <rect x="9" y="8" width="1" height="1" style="fill:#b81227;fill-opacity:0.9764705882352941" />
  <rect x="10" y="8" width="1" height="1" style="fill:#3b2509;fill-opacity:1" />
  <rect x="11" y="8" width="1" height="1" style="fill:#af1023;fill-opacity:0.9529411764705882" />
  <rect x="12" y="8" width="1" height="1" style="fill:#aa0d26;fill-opacity:0.9294117647058824" />
  <rect x="13" y="8" width="1" height="1" style="fill:#3d0813;fill-opacity:0.9450980392156862" />
  <rect x="14" y="8" width="1" height="1" style="fill:#430815;fill-opacity:1" />
  <rect x="2" y="9" width="1" height="1" style="fill:#460815;fill-opacity:1" />
  <rect x="3" y="9" width="1" height="1" style="fill:#e00735;fill-opacity:1" />
  <rect x="4" y="9" width="1" height="1" style="fill:#fdfbfb;fill-opacity:1" />
  <rect x="5" y="9" width="1" height="1" style="fill:#dd0c38;fill-opacity:0.9607843137254902" />
  <rect x="6" y="9" width="1" height="1" style="fill:#be072e;fill-opacity:0.9372549019607843" />
  <rect x="7" y="9" width="1" height="1" style="fill:#460815;fill-opacity:1" />
  <rect x="8" y="9" width="1" height="1" style="fill:#bb0f2c;fill-opacity:0.9607843137254902" />
  <rect x="9" y="9" width="1" height="1" style="fill:#c0092b;fill-opacity:0.9921568627450981" />
  <rect x="10" y="9" width="1" height="1" style="fill:#3d2509;fill-opacity:1" />
  <rect x="11" y="9" width="1" height="1" style="fill:#9e0c26;fill-opacity:0.9137254901960784" />
  <rect x="12" y="9" width="1" height="1" style="fill:#a50929;fill-opacity:0.9764705882352941" />
  <rect x="13" y="9" width="1" height="1" style="fill:#b00e2c;fill-opacity:0.9372549019607843" />
  <rect x="14" y="9" width="1" height="1" style="fill:#400814;fill-opacity:1" />
  <rect x="2" y="10" width="1" height="1" style="fill:#430814;fill-opacity:1" />
  <rect x="3" y="10" width="1" height="1" style="fill:#e41034;fill-opacity:1" />
  <rect x="4" y="10" width="1" height="1" style="fill:#eb2d52;fill-opacity:0.9921568627450981" />
  <rect x="5" y="10" width="1" height="1" style="fill:#fdfafa;fill-opacity:1" />
  <rect x="6" y="10" width="1" height="1" style="fill:#d3163c;fill-opacity:0.9686274509803922" />
  <rect x="7" y="10" width="1" height="1" style="fill:#4d0815;fill-opacity:1" />
  <rect x="8" y="10" width="1" height="1" style="fill:#cf0732;fill-opacity:1" />
  <rect x="9" y="10" width="1" height="1" style="fill:#db2049;fill-opacity:0.9764705882352941" />
  <rect x="10" y="10" width="1" height="1" style="fill:#ce0a2f;fill-opacity:0.9921568627450981" />
  <rect x="11" y="10" width="1" height="1" style="fill:#b9082b;fill-opacity:0.9529411764705882" />
  <rect x="12" y="10" width="1" height="1" style="fill:#af072a;fill-opacity:0.9215686274509803" />
  <rect x="13" y="10" width="1" height="1" style="fill:#b9092d;fill-opacity:0.9921568627450981" />
  <rect x="14" y="10" width="1" height="1" style="fill:#400814;fill-opacity:1" />
  <rect x="2" y="11" width="1" height="1" style="fill:#3e0814;fill-opacity:1" />
  <rect x="3" y="11" width="1" height="1" style="fill:#430815;fill-opacity:1" />
  <rect x="4" y="11" width="1" height="1" style="fill:#d50832;fill-opacity:0.9921568627450981" />
  <rect x="5" y="11" width="1" height="1" style="fill:#dc1741;fill-opacity:1" />
  <rect x="6" y="11" width="1" height="1" style="fill:#ce0730;fill-opacity:1" />
  <rect x="7" y="11" width="1" height="1" style="fill:#510816;fill-opacity:1" />
  <rect x="8" y="11" width="1" height="1" style="fill:#da0834;fill-opacity:0.9921568627450981" />
  <rect x="9" y="11" width="1" height="1" style="fill:#fdfbfb;fill-opacity:1" />
  <rect x="10" y="11" width="1" height="1" style="fill:#e43b5e;fill-opacity:0.9686274509803922" />
  <rect x="11" y="11" width="1" height="1" style="fill:#c7082d;fill-opacity:0.9529411764705882" />
  <rect x="12" y="11" width="1" height="1" style="fill:#b7072b;fill-opacity:0.9215686274509803" />
  <rect x="13" y="11" width="1" height="1" style="fill:#bc082d;fill-opacity:0.984313725490196" />
  <rect x="14" y="11" width="1" height="1" style="fill:#420814;fill-opacity:1" />
  <rect x="3" y="12" width="1" height="1" style="fill:#400814;fill-opacity:1" />
  <rect x="4" y="12" width="1" height="1" style="fill:#410814;fill-opacity:1" />
  <rect x="5" y="12" width="1" height="1" style="fill:#400814;fill-opacity:1" />
  <rect x="6" y="12" width="1" height="1" style="fill:#440815;fill-opacity:1" />
  <rect x="7" y="12" width="1" height="1" style="fill:#450815;fill-opacity:1" />
  <rect x="8" y="12" width="1" height="1" style="fill:#ca082e;fill-opacity:0.984313725490196" />
  <rect x="9" y="12" width="1" height="1" style="fill:#e21e49;fill-opacity:1" />
  <rect x="10" y="12" width="1" height="1" style="fill:#fefcfd;fill-opacity:1" />
  <rect x="11" y="12" width="1" height="1" style="fill:#be062a;fill-opacity:0.8352941176470589" />
  <rect x="12" y="12" width="1" height="1" style="fill:#bf082e;fill-opacity:0.984313725490196" />
  <rect x="13" y="12" width="1" height="1" style="fill:#cd1631;fill-opacity:1" />
  <rect x="14" y="12" width="1" height="1" style="fill:#430815;fill-opacity:1" />
  <rect x="7" y="13" width="1" height="1" style="fill:#410814;fill-opacity:1" />
  <rect x="8" y="13" width="1" height="1" style="fill:#430814;fill-opacity:1" />
  <rect x="9" y="13" width="1" height="1" style="fill:#ca0b31;fill-opacity:0.984313725490196" />
  <rect x="10" y="13" width="1" height="1" style="fill:#df0934;fill-opacity:1" />
  <rect x="11" y="13" width="1" height="1" style="fill:#cc0830;fill-opacity:1" />
  <rect x="12" y="13" width="1" height="1" style="fill:#b20929;fill-opacity:0.9921568627450981" />
  <rect x="13" y="13" width="1" height="1" style="fill:#430815;fill-opacity:1" />
  <rect x="14" y="13" width="1" height="1" style="fill:#410814;fill-opacity:1" />
  <rect x="8" y="14" width="1" height="1" style="fill:#430814;fill-opacity:1" />
  <rect x="9" y="14" width="1" height="1" style="fill:#450815;fill-opacity:1" />
  <rect x="10" y="14" width="1" height="1" style="fill:#450815;fill-opacity:1" />
  <rect x="11" y="14" width="1" height="1" style="fill:#420814;fill-opacity:1" />
  <rect x="12" y="14" width="1" height="1" style="fill:#3e0814;fill-opacity:1" />
  <rect x="13" y="14" width="1" height="1" style="fill:#3d0813;fill-opacity:1" />
</svg>